<svg version="1.1" xmlns="http://www.w3.org/2000/svg" xmlns:xlink="http://www.w3.org/1999/xlink" width="113.52887" height="178.18001" viewBox="0,0,113.52887,178.18001"><g transform="translate(-183.10514,-91.18051)"><g data-paper-data="{&quot;isPaintingLayer&quot;:true}" fill-rule="nonzero" stroke="none" stroke-linecap="butt" stroke-linejoin="miter" stroke-miterlimit="10" stroke-dasharray="" stroke-dashoffset="0" style="mix-blend-mode: normal"><g stroke-width="1"><path d="M200.1,217.393l2.7,-3.194l3.5,-4.905l6.24,-7.809l5.36,-6.707l4.559,-5.507l1.81,-2.942l-0.036,-2.901l0.94,-3.767l0.427,-2.943l4.6,-2.864l2.6,-0.601l8.249,-0.4l9.044,-2.387h1.927l1.283,0.685l2.197,7.208l1.4,4.405l1.926,2.959l6.874,8.854l6.4,9.665l6.3,9.157l-2.7,2.002l-9.1,4.605l-8.1,2.701l-11.138,2.115l-8.612,0.602l-11.3,-1.06l-8.779,-1.341l-6.131,-1.363l-7.94,-2.255l-4.5,-2.012" fill="#ef453e"/><path d="M279.924,213.615c-0.916,0.97 -2.386,1.736 -3.52,2.46c-1.135,0.724 -2.289,1.427 -3.478,2.055c-1.713,0.904 -3.434,1.806 -5.212,2.569c-1.356,0.58 -2.774,1.232 -4.171,1.71c-1.637,0.562 -3.371,1.136 -5.056,1.612c-1.067,0.302 -2.087,0.695 -3.167,0.928c-0.798,0.173 -1.608,0.214 -2.419,0.36c-1.27,0.23 -2.549,0.447 -3.851,0.354c-0.103,-0.008 -0.211,-0.014 -0.319,-0.022c0,0.075 0.002,0.152 -0.015,0.216c-0.15,0.546 -0.647,0.258 -1.072,0.323c-1.236,0.192 -2.429,0.417 -3.725,0.241c-1.488,-0.202 -3.024,-0.029 -4.538,-0.061c-0.809,-0.016 -1.626,-0.066 -2.42,-0.204c-0.172,-0.03 -0.553,-0.185 -0.899,-0.39c-0.053,0.069 -0.119,0.138 -0.212,0.21c-0.661,0.512 -1.721,0.287 -2.517,0.287c-0.97,0 -1.932,-0.05 -2.898,-0.05c-2.895,0 -5.68,-0.674 -8.518,-1.191c-1.431,-0.261 -2.86,-0.503 -4.278,-0.813c-0.558,-0.121 -1.042,-0.33 -1.579,-0.487c-0.478,-0.14 -0.988,-0.31 -1.472,-0.4c-0.585,-0.107 -1.179,-0.035 -1.76,-0.212c-1.057,-0.324 -2.143,-0.557 -3.192,-0.906c-1.599,-0.531 -3.185,-1.103 -4.761,-1.701c-1.169,-0.444 -2.305,-0.972 -3.469,-1.431c-0.467,-0.184 -1.015,-0.2 -1.442,-0.442c-0.48,-0.27 -0.864,-0.71 -1.344,-1.123c0.252,-0.33 0.416,-0.611 0.641,-0.831c1.52,-1.489 2.565,-3.294 3.586,-5.138c0.455,-0.821 1.225,-1.467 1.853,-2.19c0.33,-0.381 0.675,-0.751 0.994,-1.142c0.716,-0.879 1.439,-1.754 2.124,-2.658c0.894,-1.181 1.752,-2.389 2.628,-3.584c0.727,-0.994 1.402,-2.032 2.199,-2.966c0.927,-1.087 1.992,-2.057 2.942,-3.126c0.639,-0.722 1.182,-1.53 1.77,-2.297c0.399,-0.522 0.805,-1.037 1.198,-1.562c0.432,-0.576 0.86,-1.162 1.347,-1.827c0.008,-0.003 0.014,-0.005 0.021,-0.009c0.728,-0.406 1.347,-1.044 1.888,-1.71c0.188,-0.231 0.366,-0.465 0.536,-0.694c0.374,-0.503 1.205,-1.698 1.722,-0.671c0.257,0.509 0.216,1.149 -0.158,1.575c-0.178,0.203 -0.452,0.218 -0.667,0.355c-0.225,0.141 -0.276,0.295 -0.45,0.488c-0.958,1.061 -1.897,2.014 -2.723,3.052c-1.712,2.154 -3.311,4.399 -5.048,6.532c-1.819,2.234 -3.743,4.382 -5.623,6.566c-1.662,1.932 -3.386,3.804 -4.562,6.113c-0.717,1.409 -1.583,2.748 -2.456,4.07c-0.702,1.063 -0.697,1.26 0.525,1.744c0.917,0.364 1.856,0.67 2.785,1.005c1.574,0.567 3.121,1.24 4.73,1.679c1.223,0.333 2.46,0.608 3.699,0.872c0.995,0.212 1.815,0.683 2.775,0.933c0.597,0.155 1.265,0.186 1.877,0.287c1.278,0.211 2.594,0.63 3.878,0.839c1.615,0.262 3.222,0.588 4.853,0.785c1.099,0.133 2.191,0.232 3.282,0.394c0.884,0.131 1.819,-0.028 2.711,0.017c0.684,0.035 1.43,0.038 2.032,0.349c0.516,-0.463 2.12,-0.231 2.583,-0.23c1.163,0.002 2.324,0.003 3.487,-0.005c1.19,-0.008 2.38,-0.027 3.57,-0.045c0.521,-0.008 1.266,-0.132 1.944,-0.113c0.067,0.002 0.131,0.009 0.196,0.014c0.097,-0.307 0.438,-0.45 0.855,-0.533c1.414,-0.278 2.924,-0.5 4.297,-0.884c1.164,-0.326 2.432,-0.361 3.639,-0.654c1.322,-0.321 2.629,-0.745 3.961,-1.002c0.95,-0.184 1.65,-0.617 2.524,-0.989c1.336,-0.569 2.763,-0.867 4.102,-1.437c1.242,-0.528 2.465,-1.104 3.667,-1.717c0.587,-0.299 6.766,-3.912 6.782,-3.894c-0.511,-0.619 -0.957,-1.065 -1.292,-1.584c-0.532,-0.823 -0.964,-1.709 -1.481,-2.542c-1.491,-2.405 -2.954,-4.831 -4.529,-7.18c-0.489,-0.731 -1.081,-1.394 -1.676,-2.055c-0.851,-1.522 -1.807,-2.972 -2.878,-4.36c-0.114,-0.147 -0.248,-0.211 -0.381,-0.221c-1.209,-1.75 -2.443,-3.485 -3.718,-5.188c-0.997,-1.331 -2.07,-2.605 -3.126,-3.892c-0.11,-0.133 -0.252,-0.24 -0.398,-0.343c-0.437,-0.31 -0.749,-1.068 -1.075,-1.502c-0.361,-0.482 -0.665,-0.995 -0.569,-1.623c0.077,-0.502 0.603,-0.56 1.05,-0.394c0.412,0.153 0.667,0.554 0.856,0.929c0.203,0.406 0.428,0.689 0.738,1.033c0.007,0.01 0.014,0.016 0.022,0.025c0.022,0.024 0.044,0.049 0.066,0.073c0.016,0.019 0.035,0.032 0.052,0.047c0.33,0.34 0.643,0.636 0.893,0.968c1.137,1.508 2.213,3.063 3.378,4.548c1.483,1.892 3.109,3.675 4.527,5.614c1.216,1.662 2.202,3.489 3.333,5.216c0.885,1.351 1.846,2.65 2.75,3.988c0.738,1.094 1.429,2.219 2.165,3.313c0.729,1.087 1.583,2.086 2.277,3.179c0.524,0.825 1.289,1.476 1.804,2.298z" fill="#30419a"/></g><g stroke-width="1"><path d="M223.273,185.717l-2.398,-2.933l-1.275,-4.28l2.325,-1.791l2.775,-0.311l-0.75,7.528l-0.677,1.787" fill="#ef453e"/><path d="M218.2,178.429l0.875,0.637l0.525,2.967l2.55,3.379v1.651l-3.95,2.253l-5.425,2.26l-1.289,-0.478l-1.743,-2.157v-5.413l0.782,-2.096l1.373,-0.845l6.302,-2.158" fill="#fabfbd"/><path d="M225.038,176.963c-0.345,0.615 -0.938,0.574 -1.534,0.701c-0.82,0.173 -1.664,0.527 -2.445,0.827c-0.14,0.054 -0.267,0.495 -0.198,0.683c0.556,1.521 1.001,3.097 1.918,4.452c0.193,0.285 0.455,0.761 0.765,0.913c0.244,0.121 0.439,0.025 0.651,0.277c0.324,0.387 0.309,1.083 0.074,1.507c-0.308,0.554 -0.82,1.006 -1.329,1.367c-0.29,0.205 -0.599,0.377 -0.885,0.587c-0.308,0.227 -0.601,0.621 -0.936,0.791c-0.544,0.277 -1.094,0.543 -1.656,0.781c-0.096,0.041 -0.17,0.093 -0.223,0.155c-0.046,0.019 -0.092,0.038 -0.139,0.056c-1.352,0.545 -2.705,1.087 -4.057,1.631c-0.184,0.074 -0.456,0.212 -0.77,0.36c-0.259,0.033 -0.517,0.016 -0.756,-0.101c-0.441,-0.216 -0.279,-0.902 -0.044,-1.205c0.213,-0.275 0.644,-0.384 0.943,-0.532c0.054,-0.018 0.099,-0.035 0.13,-0.05c2.088,-0.953 4.112,-2.044 6.172,-3.058c0.576,-0.283 0.775,-0.685 0.425,-1.213c-1.072,-1.614 -1.664,-3.413 -2.005,-5.287c-0.209,-1.147 -0.356,-1.32 -1.731,-0.679c-1.131,0.527 -2.321,0.935 -3.5,1.355c-0.617,0.22 -1.241,0.418 -1.866,0.611c-0.361,0.037 -0.732,0.052 -1.074,0.06c-0.67,0.016 -0.942,-0.346 -0.908,-0.779c0.044,-0.162 0.122,-0.316 0.218,-0.431c0.14,-0.168 0.311,-0.308 0.494,-0.433c0.33,-0.163 0.703,-0.255 1.054,-0.383c2.752,-1.001 5.583,-1.847 8.204,-3.124c1.149,-0.561 2.42,-0.679 3.652,-0.95c0.443,-0.097 0.962,-0.422 1.313,0.007c0.238,0.293 0.22,0.788 0.043,1.104z" fill="#30419a"/></g><g stroke-width="1"><path d="M260.922,172.503l3.596,0.751l3.723,1.276l1.234,1.877v3.304l-1.295,3.378c0,0 -1.675,0.9 -1.818,1.059c-0.143,0.159 -0.487,0.068 -0.862,0.002c-0.375,-0.066 -2.55,-0.214 -2.55,-0.214c0,0 -4.125,-0.996 -4.396,-1.146c-0.27,-0.15 -0.954,-1.352 -0.954,-1.352l0.7,-3.003l1.209,-2.787v-3.145z" fill="#fabfbd"/><path d="M257.925,171.602l0.901,0.225v2.946l-0.526,2.536l-0.7,4.129l-1.025,0.376l-0.848,-2.742l-1.552,-5.893l-0.7,-2.328h1.525l2.925,0.751" fill="#ef453e"/><path d="M263.999,183.378c0.882,0.218 3.282,0.482 2.741,1.986c-0.267,0.74 -2.055,0.132 -2.531,-0.031c-1.53,-0.526 -3.053,-0.866 -4.641,-1.147c-1.138,-0.201 -2.273,-0.027 -3.037,-1.104c-0.348,-0.491 -0.39,-1.286 -0.368,-1.883c0.023,-0.586 0.353,-1.306 0.966,-1.375c1.008,-2.277 1.351,-4.686 1.31,-7.293c-1.152,-0.233 -2.301,-0.501 -3.459,-0.702c-0.792,-0.137 -1.824,-0.475 -1.659,-1.495c0.139,-0.867 0.699,-0.704 1.33,-0.486c0.902,0.311 1.848,0.535 2.768,0.785c1.956,0.533 3.907,1.087 5.877,1.565c0.994,0.242 2.014,0.348 3.015,0.561c0.546,0.116 1.825,0.338 2.151,0.872c0.167,0.274 0.064,0.704 -0.221,0.899c-0.838,0.573 -2.043,0.103 -2.897,-0.109c-0.394,-0.097 -4.732,-1.145 -4.727,-1.168c-0.395,1.863 -0.728,3.526 -1.103,5.178c-0.205,0.904 -0.518,1.785 -0.708,2.692c-0.116,0.555 -0.16,1.04 0.714,1.216c1.503,0.302 2.991,0.672 4.479,1.039z" fill="#30419a"/></g><g stroke-width="1"><path d="M228.537,238.218l-4.304,-1.701l-7.433,-3.108l-2.397,-0.997l0.632,-1.877l2.052,-5.444l2.738,-2.392l5.348,1.078l4.064,2.215l2.963,3.592l-2.299,6.632l-1.364,2.002" fill="#fabfbd"/><path d="M229,238.819l-3.827,9.21l-3.021,7.408l-1.616,4.906l-1.636,5.481l-1.468,1.627l-1.732,0.3l-5.1,-1.101l-6.8,-2.403l-5.178,-2.402l-2.522,-3.304l-2,-3.804v-4.005l0.9,-3.804l2.771,-3.204l4.829,-1.601h3.9l4.1,1.601l0.827,-1.301l1.113,-5.006l1.863,-4.605l2.397,0.597l7.819,3.26l4.381,2.15" fill="#ef453e"/><path d="M229.913,233.949c0.311,-0.935 0.81,-1.827 1.163,-2.75c0.207,-0.542 0.406,-1.113 0.76,-1.592c0.398,-0.541 1.747,-1.536 1.941,-0.312c0.176,1.111 -0.691,2.198 -1.096,3.173c-0.251,0.603 -0.425,1.215 -0.667,1.83c-0.293,0.746 -0.594,1.497 -0.905,2.234c-0.972,2.309 -2.029,4.582 -2.969,6.903c-0.811,2.001 -1.492,4.054 -2.26,6.072c-0.714,1.878 -1.489,3.734 -2.19,5.616c-0.246,0.66 -0.321,1.382 -0.536,2.056c-0.181,0.563 -0.498,1.083 -0.675,1.646c-0.387,1.228 -0.648,2.499 -1.098,3.702c-0.537,1.433 -1.132,2.786 -1.877,4.113c-0.565,1.007 -0.928,2.647 -2.36,2.713c-1.766,0.082 -3.258,-0.521 -4.836,-1.13c-1.981,-0.764 -3.955,-1.31 -5.925,-1.98c-1.266,-0.431 -2.547,-0.844 -3.802,-1.316c-1.992,-0.749 -3.644,-1.453 -5.231,-2.93c-1.479,-1.377 -2.437,-3.205 -3.337,-4.988c-1.43,-2.833 -0.852,-5.687 -0.352,-8.515c0.301,-1.697 1.485,-3.054 2.688,-4.289c1.386,-1.424 3.045,-2.467 4.966,-2.916c2.59,-0.605 5.15,-0.475 7.597,0.773c1.119,0.571 1.33,0.466 1.65,-0.718c0.483,-1.786 0.852,-3.603 1.312,-5.396c0.131,-0.509 0.356,-1.013 0.631,-1.463c0.346,-0.566 0.783,-1.064 0.383,-1.791c-0.059,-0.106 0.039,-0.415 0.152,-0.48c0.849,-0.493 0.97,-1.414 1.178,-2.285c0.239,-1.001 0.682,-1.873 1.003,-2.842c0.198,-0.598 0.438,-1.237 0.665,-1.841c0.245,-0.651 0.96,-2.955 1.991,-2.747c1.792,0.36 -1.648,6.82 -2.02,7.728c-0.185,0.451 -0.312,1.055 -0.403,1.534c-0.106,0.556 0.164,0.882 0.683,1.063c1.445,0.505 2.871,1.06 4.313,1.574c2.337,0.833 4.684,1.634 7.016,2.481c0.929,0.337 1.228,0.291 1.625,-0.628c0.331,-0.764 0.564,-1.526 0.822,-2.302zM226.95,238.635c-0.164,-0.072 -0.338,-0.123 -0.508,-0.18c-1.62,-0.541 -3.255,-1.04 -4.855,-1.63c-2.009,-0.741 -3.994,-1.548 -5.98,-2.351c-0.539,-0.218 -0.859,-0.228 -1.061,0.442c-0.223,0.742 -0.677,1.416 -0.879,2.161c-0.651,2.391 -1.243,4.801 -1.837,7.209c-0.273,1.106 -1.392,1.714 -1.954,0.965c-1.343,-1.792 -3.4,-1.626 -4.921,-2.113c-3.068,-0.18 -4.652,0.303 -6.912,2.197c-2.314,1.939 -3.407,4.442 -3.146,7.488c0.077,0.896 -0.075,1.906 0.293,2.661c0.717,1.473 1.579,2.934 2.659,4.154c0.757,0.855 1.59,1.786 2.748,2.013c2.179,1.159 4.77,1.854 7.103,2.613c2.766,0.899 5.821,1.611 8.653,2.278c0.659,0.155 1.152,-0.198 1.376,-0.675c0.432,-0.292 0.759,-0.776 0.957,-1.483c0.192,-0.693 0.45,-1.352 0.673,-2.032c0.051,-0.069 0.092,-0.154 0.111,-0.261c0.027,-0.154 0.066,-0.305 0.101,-0.457c0.037,-0.136 0.07,-0.275 0.101,-0.415c0.425,-1.558 1.141,-3.029 1.451,-4.618c0.192,-0.403 0.381,-0.807 0.541,-1.214c1.085,-2.76 2.139,-5.531 3.23,-8.288c0.891,-2.253 1.807,-4.497 2.731,-6.737c0.475,-1.151 0.462,-1.228 -0.675,-1.727z" fill="#30419a"/></g><g stroke-width="1"><path d="M229,206.356c0,0 3.3,0.748 3.6,0.748c0.3,0 4.4,2.302 4.4,2.302l2.25,1.533l0.662,2.195l-1.252,3.38l-3.285,6.206l-2.463,6.184l-1.764,0.943l-1.498,0.708l-2.25,-0.263l-3.3,-0.15c0,0 -2.006,-0.914 -2.707,-1.014c-0.7,-0.1 -1.906,-1.014 -1.906,-1.014l-0.75,-0.788l-0.375,-0.829l-0.162,-4.825l2.335,-5.658l3.165,-7.008l1.473,-3.651z" fill="#fabfbd"/><path d="M226.484,206.077c-0.253,0.395 -0.489,0.802 -0.726,1.208c-0.759,1.298 -1.624,2.546 -2.247,3.907c-1.21,2.645 -2.349,5.327 -3.399,8.04c-0.767,1.982 -1.507,3.974 -2.244,5.968c-0.678,0.241 -1.674,0.576 -1.675,-0.164c0,-0.091 -0.019,-0.174 -0.05,-0.247c-0.012,-0.163 -0.027,-0.326 -0.025,-0.49c0.031,-0.096 0.061,-0.194 0.094,-0.291c-0.012,-0.014 -0.026,-0.022 -0.039,-0.034c0.392,-0.792 0.758,-1.584 0.927,-2.375c0.978,-2.319 1.914,-4.575 2.885,-6.814c0.7,-1.616 1.422,-3.223 2.188,-4.807c0.574,-1.186 1.137,-2.399 1.885,-3.475c0.392,-0.565 0.042,-1.26 0.404,-1.756c0.321,-0.44 1.073,-0.648 1.551,-0.359c0.627,0.379 0.847,1.107 0.471,1.689z" fill="#30419a"/><path d="M240.407,214.119c-0.137,0.341 -0.422,0.571 -0.547,0.902c-0.736,1.95 -1.475,3.898 -2.22,5.843c-0.42,1.096 -0.853,2.194 -1.343,3.452c-0.113,0.118 -0.182,0.28 -0.203,0.459c-0.031,0.261 -0.145,0.519 -0.258,0.771c-0.005,-0.004 -0.01,-0.007 -0.016,-0.011c-0.13,0.23 -0.325,0.512 -0.461,0.821c-0.541,1.23 -1.081,2.461 -1.618,3.694c-0.089,0.111 -0.177,0.222 -0.276,0.327c-0.925,0.98 -1.605,-0.262 -1.479,-1.075c1.245,-2.891 2.498,-5.779 3.704,-8.686c0.418,-1.008 0.468,-2.173 0.91,-3.165c0.488,-1.098 1.072,-2.148 1.628,-3.212c0.348,-0.666 0.748,-2.22 1.762,-2.08c0.41,0.057 0.565,0.317 0.611,0.714c0.048,0.417 -0.036,0.857 -0.194,1.246z" fill="#30419a"/></g><g stroke-width="1"><path d="M250.838,228.283l0.188,-2.253c0,0 2.758,-2.691 3.337,-2.553c0.35,0.085 4.197,-1.429 4.837,-1.576c0.64,-0.147 4.275,-0.248 4.275,-0.248l2.376,1.449l2.329,5.306l-3.662,1.703l-4.818,2.202l-4.6,2.703z" fill="#fabfbd"/><path d="M287.5,235.774l3,2.445l1.7,2.303l0.7,4.798v3.712l-2.2,4.405l-5.7,5.906l-6.1,3.805c0,0 -3.2,0.901 -3.6,0.8c-0.4,-0.1 -2.206,0 -2.206,0l-3.744,-4.204l-2.948,-5.406l-3.801,-6.207l-5.001,-8.01l-2.5,-5.105l7.501,-3.504l5.94,-2.403l4.553,8.71l5.306,-2.045l5.2,-0.758z" fill="#ef453e"/><path d="M294.151,244.819c0.148,3.347 -0.512,6.562 -2.408,9.367c-1.95,2.884 -4.389,5.373 -7.474,7.128c-3.453,1.965 -6.343,4.51 -10.521,4.51c-1.159,0 -1.467,-0.043 -2.168,-0.901c-0.343,-0.422 -0.573,-0.833 -0.881,-1.291c-0.526,-0.78 -0.753,-1.601 -1.349,-2.329c-0.71,-0.866 -1.203,-1.935 -1.757,-2.91c-1.248,-2.196 -2.49,-4.395 -3.725,-6.6c-0.893,-1.595 -1.686,-3.248 -2.628,-4.812c-0.939,-1.557 -2.038,-3.018 -3.009,-4.557c-0.703,-1.112 -1.28,-2.304 -1.972,-3.426c-0.849,-1.378 -1.804,-2.693 -2.631,-4.084c-0.34,-0.572 -0.62,-1.14 -0.895,-1.733c-0.257,-0.554 -0.713,-0.993 -0.968,-1.551c-0.343,-0.75 -0.81,-1.407 -1.247,-2.1c-0.332,-0.526 -1.231,-2.046 -0.132,-2.224c0.889,-0.145 1.327,0.491 1.691,1.173c0.234,0.439 0.414,0.911 0.627,1.372c0.36,0.779 0.886,1.549 1.316,2.3c0.37,0.648 0.867,1.116 1.642,0.764c1.028,-0.467 2.121,-0.792 3.145,-1.267c1.9,-0.882 3.753,-1.868 5.662,-2.73c0.158,-0.072 0.358,-0.131 0.569,-0.194c0.447,-0.132 0.94,-0.278 1.173,-0.591c0.434,-0.582 -0.128,-1.649 -0.394,-2.196c-0.362,-0.749 -0.71,-1.438 -0.929,-2.228c-0.154,-0.557 -0.403,-0.981 -0.364,-1.585c0.053,-0.819 0.878,-0.962 1.386,-0.423c0.519,0.55 0.683,1.423 1.032,2.084c0.267,0.507 0.566,1.019 0.801,1.538c0.192,0.426 0.201,0.912 0.46,1.307c0.253,0.387 0.692,0.668 1.123,0.808c0.79,0.257 0.559,1.181 0.604,1.876c0.033,0.499 0.046,1.065 0.285,1.473c1.037,1.766 2.136,3.494 2.813,5.443c0.168,0.482 0.469,0.505 0.838,0.263c4.439,-2.913 10.724,-3.646 15.343,-0.797c0.967,0.596 1.85,1.185 2.633,1.931c1.028,1.781 1.748,3.648 2.224,5.622c0.039,0.547 0.064,1.084 0.085,1.57zM291.947,245.251c-0.146,-1.324 -0.69,-2.6 -0.982,-3.914c-0.504,-2.258 -2.112,-3.659 -3.971,-4.602c-1.822,-0.924 -3.904,-0.85 -5.97,-0.634c-2.808,0.293 -4.913,1.849 -7.042,3.452c-0.296,0.224 -0.759,0.359 -1.124,0.325c-0.449,-0.042 -0.911,-0.202 -0.959,-0.865c-0.039,-0.552 -0.211,-1.115 -0.422,-1.633c-0.753,-1.854 -1.747,-3.596 -2.436,-5.489c-0.659,-1.81 -0.775,-1.768 -2.589,-1.067c-0.196,0.077 -0.387,0.174 -0.591,0.221c-3.584,0.815 -6.579,2.937 -9.926,4.442c0.477,0.62 0.963,1.122 1.3,1.71c1.276,2.22 2.479,4.483 3.761,6.7c0.624,1.081 1.389,2.079 2.039,3.146c0.916,1.506 1.789,3.039 2.669,4.568c0.491,0.854 0.969,1.717 1.432,2.585c0.448,0.839 0.769,1.768 1.326,2.525c0.438,0.593 0.895,1.172 1.354,1.749c0.773,1.253 2.016,3.736 3.285,4.417c0.329,0.229 0.697,0.342 1.107,0.267c1.556,0.67 4.345,-0.884 6.518,-2.4c1.551,-0.621 2.897,-1.58 4.193,-2.678c3.004,-2.544 5.603,-5.369 6.777,-9.205c0.347,-1.133 0.383,-2.432 0.251,-3.62z" fill="#30419a"/></g><g><path d="M233.4,173.755h1.976l7.724,-1.001l4.8,-1.501l3.979,-1.903l1.424,3.004l1.996,5.346l0.695,9l1.606,10.181h-1.606l-3.594,-0.49l-6.9,0.791l-1.9,-1.202l-3.356,-0.5l-2.644,0.911l-1.7,1.555h-4.6l-6.127,1.338l-0.94,-3.804v-9.756l0.94,-7.364l0.927,-2.302l2.882,-2.013l4.418,-0.29" fill="#fabfbd" stroke-width="1"/><path d="M226.013,204.377l4.73,-0.588l5.533,-0.401l2.974,0.855l1.799,0.431l2.251,-0.643l2,-1.143h3.8l6.2,-0.847l2.3,0.447l0.7,3.303l-3.7,3.504l-4.507,2.102c0,0 -5.093,0.932 -5.393,1.467c-0.3,0.535 -2.75,1.055 -2.75,1.055l-2.7,-1.055l-5.75,-0.864l-3.877,-1.504l-2.954,-3.003z" fill="#fabfbd" stroke-width="1"/><path d="M242.7,177.7l2.1,0.761l1.5,1.901l1.3,3.574l-0.408,2.764l-2.792,1.972l-3.351,1.502h-2.389l-3.86,-1.101l-2.6,-2.373l-0.6,-3.271l1.3,-2.666l2.476,-2.302l3.374,-0.761h3.95" fill="#ffffff" stroke-width="1"/><path d="M257.523,196.391l0.077,5.196l-4.297,0.727l-5.703,0.574l-1.6,-0.847l-2.5,1.748c0,0 -1.7,0.901 -2.451,0.886c-0.75,-0.016 -1.449,0 -1.449,0l-2.5,-1.587l-2.711,0.438l-4.766,0.717l-4.45,0.432v-5.391l1.496,-0.327l8.707,-1.675l2.224,-0.891l2,-0.689l2.556,0.063l3.744,1.116l4.193,-0.49h6.507z" fill="#ef453e" stroke-width="1"/><path d="M258.601,204.246c-0.517,0.808 -1.314,0.173 -1.588,-0.469c-0.206,-0.482 -0.289,-0.43 -0.848,-0.47c-0.47,-0.032 -0.941,-0.065 -1.413,-0.063c-1.435,0.005 -2.87,0.056 -4.305,0.088c-1.151,0.025 -2.304,0.016 -3.453,0.087c-0.429,0.027 -0.962,0.114 -1.25,0.384c-1.098,1.025 -2.406,1.607 -3.835,1.842c-0.923,0.151 -1.835,0.022 -2.786,-0.381c-1.28,-0.541 -2.615,-1.124 -4.123,-0.899c-1.886,0.281 -3.803,0.361 -5.675,0.702c-0.822,0.149 -1.917,-0.034 -2.594,0.551c-0.547,0.471 -0.986,1.039 -1.771,0.526c-0.949,-0.618 -1.084,-2.555 -0.315,-3.343c0.044,-0.045 -0.058,-0.222 -0.072,-0.339c-0.154,-1.25 -0.312,-2.5 -0.453,-3.751c-0.286,-2.518 -0.564,-5.038 -0.85,-7.556c0.114,-1.461 0.204,-2.921 0.162,-4.388c0.153,-0.732 0.198,-1.465 0.081,-2.197c0.018,0.019 0.031,0.039 0.049,0.058c0.102,-2.291 0.195,-4.416 0.294,-6.644c0.028,-0.051 0.06,-0.098 0.074,-0.164c0.164,-0.734 0.295,-1.484 0.61,-2.173c0.046,-0.024 0.089,-0.035 0.132,-0.05c0.609,-0.208 1.217,-0.426 1.821,-0.65c0.506,-0.186 0.605,-0.591 1.052,-0.846c0.414,-0.235 1.009,-0.189 1.435,-0.055c0.239,0.075 0.674,0.258 0.768,0.518c0.137,0.376 -0.291,0.538 -0.49,0.813c-0.253,0.347 -0.878,0.42 -1.331,0.626c-0.235,0.107 -0.526,0.182 -0.675,0.367c-0.408,0.505 -0.967,0.819 -1.034,1.673c-0.107,1.38 -0.741,2.721 -0.836,4.099c-0.185,2.691 -0.159,5.397 -0.198,8.097c-0.008,0.474 0.135,0.948 0.139,1.423c0.017,2.06 0.007,4.121 0.007,6.224c0.29,0.033 0.502,0.111 0.691,0.072c2.394,-0.496 4.78,-1.025 7.177,-1.506c0.755,-0.151 1.538,-0.157 2.301,-0.273c0.485,-0.074 1.099,-0.078 1.412,-0.372c2.088,-1.959 6.322,-1.314 8.037,-0.131c0.612,0.421 1.156,0.389 1.782,0.255c0.28,-0.06 0.561,-0.122 0.845,-0.155c1.246,-0.142 2.489,-0.311 3.739,-0.401c1.524,-0.111 3.075,-0.617 4.585,0.238c0.654,-0.837 0.43,-1.7 0.33,-2.562c-0.251,-2.177 -0.467,-4.357 -0.717,-6.533c-0.193,-1.671 -0.375,-3.344 -0.635,-5.005c-0.359,-2.294 -0.746,-4.585 -1.208,-6.86c-0.158,-0.777 -0.607,-1.491 -0.869,-2.252c-0.255,-0.74 -1.428,-2.192 -0.322,-2.791c0.312,-0.169 0.705,-0.26 1.051,-0.261c0.089,0 0.224,0.03 0.365,0.078c0.622,0.647 0.497,1.702 0.635,2.534c0.023,0.138 0.084,0.231 0.157,0.306c0.742,2.673 1.426,5.138 2.109,7.595c0.016,-0.002 0.187,3.253 0.187,3.253l0.141,2.733l-0.018,0.009c0.092,1.129 0.169,2.26 0.278,3.388c0.162,1.668 0.083,3.419 0.585,4.982c0.597,1.858 0.562,3.811 0.553,5.74c-0.004,0.743 0.033,1.453 0.157,2.183c0.03,0.177 0.066,0.369 0.095,0.566c0.078,0.527 0.105,1.096 -0.172,1.53zM234.828,198.477c-3.148,-0.105 -6.064,0.679 -9.061,1.501c0.119,0.977 0.228,1.866 0.334,2.755c0.057,0.478 0.218,0.753 0.804,0.701c1.255,-0.11 2.521,-0.094 3.773,-0.218c1.182,-0.118 2.353,-0.348 3.659,-0.548c-0.25,-1.427 -0.311,-2.805 0.491,-4.191zM245.216,199.5c-0.524,-1.578 -1.263,-2.989 -3.261,-2.915c-0.847,0.032 -1.885,-0.125 -2.492,0.298c-1.07,0.747 -2.009,1.784 -2.735,2.878c-0.365,0.551 -0.28,1.519 -0.144,2.252c0.149,0.813 0.867,0.454 1.403,0.378c0.142,-0.02 0.294,0.031 0.442,0.049c0.059,-0.068 0.118,-0.136 0.178,-0.204c0.311,0.25 0.672,0.458 0.924,0.758c0.736,0.878 1.455,1.192 2.334,0.714c0.914,-0.497 1.777,-1.114 2.581,-1.777c0.74,-0.609 1.09,-1.471 0.77,-2.431zM256.96,199.616c-0.071,-0.502 -0.093,-1.017 -0.233,-1.499c-0.07,-0.241 -0.345,-0.592 -0.542,-0.602c-1.946,-0.1 -3.895,-0.188 -5.842,-0.173c-0.945,0.007 -1.885,0.277 -2.833,0.368c-0.775,0.074 -0.864,0.271 -0.66,1.03c0.225,0.833 0.258,1.717 0.45,2.561c0.049,0.217 0.378,0.524 0.58,0.526c0.591,0.005 1.184,-0.152 1.778,-0.194c1.894,-0.138 3.801,-0.161 5.68,-0.403c1.599,-0.205 1.663,-0.357 1.622,-1.614z" fill="#30419a" stroke-width="1"/><path d="M241.598,212.247c0.206,0.526 0.351,1.103 0.351,1.672c0,0.896 -0.333,1.07 -1.143,0.7c-0.525,-0.241 -1.133,-0.137 -1.617,-0.466c-1.183,-0.805 0.293,-2.857 1.259,-3.215c0.374,-0.137 1.045,1.041 1.15,1.309z" fill="#30419a" stroke-width="1"/><path d="M246.761,188.056c-2.667,2.476 -5.639,4.081 -9.378,3.347c-2.629,-0.515 -4.665,-2.081 -6.118,-4.311c-0.962,-1.476 -0.508,-5.003 0.649,-6.328c1.169,-1.34 2.245,-2.848 4.054,-3.325c1.411,-0.372 2.893,-0.47 4.533,-0.72c1.191,0.279 2.517,0.521 3.801,0.903c4.117,1.226 5.582,7.536 2.459,10.434zM243.613,179.575c-1.29,-0.348 -2.613,-0.578 -3.922,-0.861c-0.013,0.081 -0.026,0.163 -0.039,0.245c-2.766,-0.32 -4.889,0.657 -6.307,3.084c-0.676,1.158 -0.718,3.659 0.021,4.487c1.438,1.608 3.065,2.801 5.384,2.907c2.814,0.128 5.071,-0.805 6.807,-3.001c1.81,-2.291 0.498,-6.203 -1.944,-6.861z" fill="#30419a" stroke-width="1"/><path d="M245.60348,186.45442c-1.736,2.196 -4.04744,3.15995 -6.86144,3.03195c-2.319,-0.106 -3.9846,-1.33012 -5.4226,-2.93812c-0.739,-0.828 -0.698,-3.36271 -0.022,-4.52071c1.418,-2.427 3.58893,-3.43854 6.35493,-3.11854c0.013,-0.082 0.02635,-0.164 0.03935,-0.245c1.309,0.283 2.66447,0.5256 3.95447,0.8736c2.442,0.658 3.76729,4.62581 1.95729,6.91681z" data-paper-data="{&quot;noHover&quot;:false,&quot;origItem&quot;:[&quot;Path&quot;,{&quot;applyMatrix&quot;:true,&quot;segments&quot;:[[[243.613,179.575],[2.442,0.658],[-1.29,-0.348]],[[239.691,178.714],[1.309,0.283],[-0.013,0.081]],[[239.652,178.959],[0.013,-0.082],[-2.766,-0.32]],[[233.345,182.043],[1.418,-2.427],[-0.676,1.158]],[[233.366,186.53],[-0.739,-0.828],[1.438,1.608]],[[238.75,189.437],[-2.319,-0.106],[2.814,0.128]],[[245.557,186.436],[-1.736,2.196],[1.81,-2.291]]],&quot;closed&quot;:true,&quot;fillColor&quot;:[0,0,0,1]}]}" fill="#ef453e" stroke-width="0.5"/></g><g stroke-width="1"><path d="M236.062,173.442h-7.336l-7.333,-0.901l-7.05,-3.754l-9.043,-7.508l-6.07,-11.313l0.87,-8.902l3.2,-6.816l5.2,-6.107l7.447,-4.004l8.753,-2.402l12.4,-1.302l11.341,1.602l10.385,4.104l6.174,4.806l3.541,7.308l1.609,7.436l-1.609,6.68l-2.69,6.407l-5.651,5.406l-6.1,4.305l-6.5,3.003l-6.551,1.051l-4.987,0.901" fill="#ffffff"/><path d="M236.276,109.245l-3.251,0.676l-4.488,-1.051l-5.264,-5.857v-4.58c0,0 1.623,-3.454 1.9,-3.529c0.276,-0.075 5.002,-2.102 5.002,-2.102h3.9l3.45,1.502l2.075,3.303l1.316,3.229v3.454l-1.316,2.628z" fill="#ef453e"/><path d="M232.8,173.292l-3.9,-0.751l-6.441,-4.805l-4.059,-4.28l-2.453,-6.007l-1.967,-0.751l-4.655,-0.75l-2.475,-3.079c0,0 0.075,-3.529 0,-3.754c-0.075,-0.225 1.725,-4.205 1.725,-4.205l2.852,-1.126l3.523,1.051l2.482,-1.051l2.693,-4.956c0,0 4.921,-3.378 5.048,-3.453c0.127,-0.076 6.427,-1.652 6.427,-1.652l7.65,-0.727l6.075,1.252l5.25,3.379l2.25,2.778l2.325,0.301l3.676,-1.652l3.299,0.976l2.393,2.631l0.757,3.154v2.849l-1.738,2.703l-2.101,1.777h-2.61h-1.226c0,0 -0.882,2.578 -0.579,2.804c0.303,0.225 0.579,5.331 0.579,5.331l-1.606,5.255l-1.67,1.802l-3.825,2.169l-7.65,2.261l-5.55,0.676z" fill="#fcf6b6"/><path d="M248.916,149.179c-1.432,0.589 -2.83,1.263 -4.277,1.809c-1.326,0.501 -2.679,0.955 -4.055,1.289c-1.797,0.438 -3.616,0.811 -5.446,1.076c-1.717,0.249 -3.459,0.333 -5.191,0.468c-2.082,0.162 -4.165,0.305 -6.248,0.447c-0.685,0.047 -1.18,-0.392 -1.236,-0.954c-0.052,-0.527 0.381,-0.891 1.048,-0.944c1.314,-0.104 2.628,-0.226 3.941,-0.351c0.627,-0.028 1.252,-0.078 1.877,-0.139c0.661,0.03 1.321,0.027 1.973,-0.097c0.002,0.01 0.004,0.02 0.005,0.031c1.026,-0.179 2.053,-0.35 3.078,-0.539c1.878,-0.347 3.772,-0.631 5.625,-1.085c1.272,-0.313 2.505,-0.819 3.718,-1.328c1.401,-0.587 2.758,-1.275 4.139,-1.91c0.211,-0.097 0.472,-0.241 0.666,-0.191c0.528,0.137 1.225,0.225 1.494,0.595c0.312,0.431 -0.548,1.591 -1.111,1.823z" fill="#30419a"/><path d="M238.946,141.569c0.425,-0.848 1.627,-0.498 2.096,0.09c0.756,0.948 0.279,2.086 -0.812,2.372c-0.323,0.085 -0.589,0.07 -0.804,-0.018c-0.801,-0.327 -0.876,-1.653 -0.48,-2.444z" fill="#30419a"/><path d="M227.962,142.888c0.726,-0.475 1.736,0.374 1.946,1.057c0.118,0.381 0.187,1.058 -0.056,1.406c-0.295,0.423 -1.109,0.394 -1.545,0.215c-0.056,-0.024 -0.11,-0.052 -0.162,-0.085c-0.801,-0.503 -1.004,-2.054 -0.183,-2.593z" fill="#30419a"/><path d="M270.728,147.676c-0.42,2.147 -0.865,4.295 -1.452,6.4c-0.293,1.05 -0.824,2.07 -1.424,2.988c-0.929,1.422 -1.955,2.792 -3.044,4.096c-0.824,0.985 -1.777,1.871 -2.735,2.731c-0.998,0.896 -2.055,1.727 -3.115,2.55c-1.202,0.934 -2.428,1.839 -3.663,2.732c-0.294,0.213 -0.662,0.325 -1.164,0.565c0.027,0.008 0.051,0.015 0.078,0.022c-0.868,0.521 -1.881,0.724 -2.759,1.231c-0.277,0.045 -0.619,0.18 -1.063,0.398c-2.06,1.01 -4.168,1.795 -6.485,2.021c-2.421,0.237 -4.819,0.689 -7.237,0.951c-1.908,0.206 -3.831,0.284 -5.75,0.385c-0.25,0.013 -0.486,0.023 -0.709,0.067c-0.036,-0.006 -0.065,-0.022 -0.105,-0.023c-1.163,-0.015 -2.306,-0.214 -3.46,-0.335c-0.85,-0.263 -1.692,-0.571 -2.561,-0.725c-2.352,-0.417 -4.566,-1.185 -6.676,-2.299c-1.366,-0.721 -2.821,-1.284 -4.147,-2.07c-1.309,-0.776 -2.543,-1.694 -3.74,-2.639c-1.223,-0.965 -2.386,-2.011 -3.527,-3.074c-0.585,-0.545 -1.018,-1.255 -1.602,-1.802c-2.076,-1.945 -3.537,-4.272 -4.499,-6.939c-0.465,-1.291 -1.066,-2.535 -1.478,-3.84c-0.212,-0.67 -0.131,-1.429 -0.202,-2.146c-0.126,-1.29 -0.25,-2.58 -0.407,-3.866c-0.184,-1.509 0.509,-2.83 1.016,-4.136c0.798,-2.055 1.894,-3.992 2.828,-5.997c0.969,-2.078 2.441,-3.797 3.997,-5.415c1.323,-1.378 2.744,-2.738 4.345,-3.752c1.676,-1.062 3.62,-1.701 5.446,-2.528c0.622,-0.282 1.224,-0.618 1.863,-0.855c0.949,-0.352 1.905,-0.721 2.89,-0.931c1.757,-0.373 3.532,-0.665 5.308,-0.931c2.273,-0.342 4.555,-0.633 6.835,-0.926c0.516,-0.067 0.88,-0.178 0.741,-0.828c-0.471,-2.196 -0.923,-4.395 -1.385,-6.593c-0.114,-0.537 -0.393,-0.994 -0.984,-0.943c-1.134,0.098 -1.827,-0.69 -2.586,-1.256c-1.278,-0.953 -2.493,-2.001 -3.659,-3.09c-1.295,-1.21 -2.075,-2.651 -2.6,-4.443c-0.702,-2.396 0.592,-4.192 1.173,-6.17c0.261,-0.887 1.392,-1.631 2.284,-2.193c1.47,-0.927 2.996,-1.861 4.625,-2.422c3.31,-1.139 6.183,-0.12 8.606,2.317c1.682,1.69 2.601,3.749 3.113,6.066c0.3,1.362 0.744,2.703 0.319,4.07c-0.35,1.126 -0.719,2.329 -1.407,3.251c-1.563,2.092 -3.677,3.411 -6.359,3.655c-0.254,0.024 -0.498,0.16 -0.774,0.253c0.51,2.44 1.015,4.806 1.492,7.177c0.141,0.701 0.466,1.024 1.227,0.994c0.683,-0.026 1.371,0.161 2.057,0.163c0.693,0.001 1.384,-0.131 2.079,-0.163c0.555,-0.026 1.117,-0.028 1.671,0.026c3.882,0.38 7.476,1.962 11.266,2.749c1.281,0.266 2.466,1.04 3.668,1.637c1.155,0.574 2.305,1.168 3.399,1.848c1.038,0.645 2.1,1.309 2.973,2.15c1.538,1.482 3.114,2.981 4.353,4.705c1.337,1.859 2.273,3.981 2.494,6.357c0.14,1.514 0.419,3.022 0.724,4.515c0.295,1.44 0.161,2.858 -0.112,4.26zM234.265,108.979c1.159,-0.527 2.345,-1.024 3.432,-1.681c1.599,-0.968 2.296,-2.643 2.337,-4.353c0.055,-2.275 -0.551,-4.462 -1.9,-6.417c-1.545,-2.238 -3.636,-3.342 -6.273,-2.978c-1.402,0.193 -2.744,0.912 -4.081,1.47c-2.749,1.147 -3.46,3.597 -3.879,6.155c0.017,0.248 0.006,0.433 0.044,0.608c0.687,3.223 2.847,5.171 5.689,6.49c0.576,0.267 1.186,0.363 1.859,-0.088c0.439,-0.295 1.172,-0.273 1.548,0.372c0.299,0.512 0.732,0.646 1.224,0.422zM256.772,156.912c-0.198,-1.513 -0.335,-2.789 -0.539,-4.053c-0.214,-1.323 -0.55,-2.629 -0.732,-3.955c-0.428,-3.11 -1.795,-5.789 -3.787,-8.136c-1.573,-1.852 -3.221,-3.64 -5.4,-4.864c-1.773,-0.996 -3.606,-1.88 -5.627,-1.886c-2.937,-0.011 -5.879,-0.259 -8.821,0.436c-1.997,0.472 -4.015,0.72 -5.929,1.593c-1.758,0.802 -3.315,1.752 -4.622,3.202c-2.303,2.557 -4.303,5.259 -4.749,8.791c-0.178,1.419 -0.321,2.869 -0.231,4.29c0.096,1.512 0.533,2.998 0.736,4.507c0.34,2.526 1.605,4.688 2.665,6.925c0.271,0.573 0.835,1.256 1.383,1.384c0.664,0.155 0.97,0.502 1.306,0.955c0.302,0.408 0.573,0.842 0.907,1.222c1.439,1.638 3.335,2.645 5.184,3.711c0.803,0.463 1.592,1.057 2.465,1.265c1.147,0.274 2.371,0.297 3.561,0.295c1.161,-0.002 2.32,-0.174 3.48,-0.265c1.572,-0.124 3.192,-0.049 4.707,-0.411c2.286,-0.545 4.626,-1.014 6.719,-2.192c1.389,-0.782 3.055,-1.304 4.095,-2.414c1.138,-1.215 1.977,-2.894 2.438,-4.516c0.553,-1.946 0.566,-4.046 0.791,-5.884zM257.427,147.717c0.402,1.405 0.623,2.862 0.985,4.28c0.064,0.256 0.417,0.623 0.638,0.625c1.466,0.01 2.687,-0.646 3.583,-1.753c1.224,-1.511 1.423,-3.426 1.864,-5.409c-0.275,-0.855 -0.504,-1.878 -0.93,-2.812c-0.653,-1.431 -2.124,-1.924 -3.379,-2.639c-0.194,-0.11 -0.507,-0.17 -0.699,-0.093c-1.122,0.453 -2.252,0.9 -3.324,1.456c-0.644,0.335 -0.672,0.876 -0.366,1.609c0.64,1.539 1.168,3.132 1.628,4.736zM268.734,143.954c-0.183,-2.842 -0.976,-5.399 -2.322,-7.793c-1.655,-2.942 -3.581,-5.707 -6.205,-7.92c-1.921,-1.621 -4.147,-2.653 -6.482,-3.436c-2.503,-0.84 -5.049,-1.564 -7.603,-2.236c-1.648,-0.433 -3.331,-0.794 -5.022,-0.976c-1.353,-0.146 -2.74,0.045 -4.111,0.052c-0.566,0.003 -1.139,-0.169 -1.696,-0.121c-2.507,0.215 -5.026,0.37 -7.51,0.752c-3.7,0.57 -7.489,0.809 -10.977,2.36c-2.763,1.229 -5.628,2.345 -7.774,4.575c-1.593,1.656 -3.179,3.371 -4.445,5.275c-1.797,2.705 -3.31,5.61 -4.079,8.812c-0.274,1.142 -0.577,2.353 -0.467,3.495c0.264,2.775 0.83,5.51 1.977,8.084c0.918,2.059 2.02,3.998 3.643,5.601c0.758,0.748 1.443,1.573 2.24,2.274c1.614,1.421 3.193,2.905 4.953,4.125c1.506,1.045 3.201,1.853 4.888,2.592c2.055,0.901 4.175,1.659 6.294,2.403c0.812,0.284 1.698,0.357 2.55,0.527c0.029,-0.074 0.058,-0.147 0.087,-0.221c-2.635,-1.722 -5.566,-2.969 -7.519,-5.685c-1.948,-2.705 -2.811,-5.792 -3.926,-8.859c-0.613,0.043 -1.184,0.041 -1.742,0.129c-2.861,0.45 -5.139,-0.434 -6.682,-2.939c-0.349,-0.567 -0.599,-1.216 -0.784,-1.859c-0.405,-1.408 -0.74,-2.833 -0.237,-4.301c0.242,-0.707 0.469,-1.419 0.663,-2.14c0.804,-2.99 3.682,-4.791 6.541,-3.796c0.648,0.225 1.246,0.591 1.892,0.824c0.247,0.088 0.723,0.093 0.822,-0.05c0.573,-0.839 1.083,-1.722 1.581,-2.61c1.038,-1.848 2.352,-3.583 4.039,-4.735c2.17,-1.481 4.509,-2.78 7.206,-3.325c2.579,-0.522 5.124,-1.155 7.776,-1.102c0.447,0.009 0.912,0.158 1.335,0.073c2.096,-0.423 4.106,0.113 6.1,0.563c1.93,0.435 3.64,1.452 5.132,2.723c1.613,1.373 3.111,2.886 4.617,4.382c0.417,0.414 0.691,0.501 1.219,0.174c0.757,-0.467 1.594,-0.802 2.398,-1.193c1.772,-0.863 3.414,-0.826 5.13,0.328c2.433,1.635 3.994,3.731 4.086,6.706c0.084,2.715 -0.537,5.226 -2.784,7.025c-0.687,0.549 -1.458,1.036 -2.264,1.377c-0.525,0.222 -1.182,0.133 -1.78,0.179c-0.624,0.049 -0.875,0.289 -0.791,0.996c0.293,2.493 0.207,4.979 -0.394,7.431c-0.183,0.744 -0.38,1.485 -0.574,2.24c0.166,0.019 0.231,0.047 0.278,0.029c0.111,-0.042 0.225,-0.091 0.318,-0.163c4.015,-3.082 7.344,-6.752 8.975,-11.618c0.967,-2.889 1.633,-5.855 1.43,-9.028zM214.423,153.869c-0.004,-1.901 0.057,-3.804 0.126,-5.706c0.021,-0.552 0.308,-1.135 0.195,-1.643c-0.182,-0.817 -2.031,-1.973 -3.16,-1.989c-0.394,0.127 -1.066,0.24 -1.635,0.545c-1.742,0.932 -3.168,4.955 -2.537,6.858c1.167,3.523 3.738,4.313 6.94,4.048c0.161,-0.013 0.43,-0.383 0.411,-0.562c-0.056,-0.524 -0.34,-1.035 -0.34,-1.551z" fill="#30419a"/></g><g stroke-width="1"><path d="M266.75,184.566c0,0 -1.025,-1.326 -1.25,-1.477c-0.225,-0.15 -0.751,-1.727 -0.982,-2.024c-0.232,-0.297 0.382,-3.006 0.482,-3.367c0.099,-0.36 1.85,-2.05 1.85,-2.05l1.691,-0.876l1.609,0.509l-0.375,2.417l-0.3,4.115l-0.934,3.194z" fill="#fabfbd"/><path d="M289.125,172.503l3.75,2.269l1.725,3.597l0.675,3.144v4.21l-1.575,3.298l-2.325,3.116l-4.125,2.59h-3.6l-3.724,-1.201l-3.326,-1.945l-1.35,-2.71l-1.05,-2.628l-3.193,-0.52l-1.757,-1.408l0.425,-5.244l1.332,-4.298c0,0 5.368,2.085 5.593,1.945c0.225,-0.14 1.35,-0.386 1.35,-0.386l1.65,-2.928l3.225,-1.953h2.925z" fill="#ef453e"/><path d="M296.233,186.646c-0.071,0.62 -0.526,1.194 -0.793,1.795c-0.988,2.218 -2.33,4.211 -4.216,5.728c-1.406,1.131 -3.081,1.861 -4.902,2.116c-2.026,0.284 -3.982,0.004 -5.787,-0.985c-2.408,-1.317 -4.615,-2.879 -5.861,-5.452c-0.131,-0.271 -0.323,-0.514 -0.51,-0.761c-0.089,-0.238 -0.18,-0.476 -0.268,-0.715c-0.05,-0.194 -0.095,-0.386 -0.125,-0.573c-0.023,-0.14 -0.085,-0.235 -0.16,-0.31c-0.017,-0.02 -0.04,-0.041 -0.07,-0.063c-0.016,-0.011 -0.029,-0.027 -0.047,-0.036c-0.102,-0.068 -0.233,-0.139 -0.328,-0.187c-1.725,-0.878 -3.579,-1.08 -5.484,-1.183c-0.909,-0.049 -2.994,-0.227 -3.156,-1.437c-0.128,-0.949 1.449,-0.718 1.979,-0.594c0.364,0.084 0.763,0.012 1.221,0.012c0.314,-1.674 0.648,-3.326 0.928,-4.988c0.19,-1.129 0.306,-2.271 0.487,-3.653c0.001,-0.005 -1.68,-0.435 -1.849,-0.497c-0.476,-0.176 -1.051,-0.506 -1.116,-1.076c-0.196,-1.712 3.769,0.279 4.342,0.463c1.646,0.528 3.318,0.971 4.99,1.411c0.186,0.05 0.518,-0.084 0.644,-0.243c0.406,-0.518 0.709,-1.116 1.119,-1.629c2.205,-2.76 5.081,-3.798 8.519,-3.123c3.258,0.638 6.123,2.128 8.384,4.572c1.429,1.544 2.35,3.474 2.443,5.582c0.085,1.934 -0.165,3.891 -0.384,5.826zM293.863,178.531c-0.957,-2.263 -2.841,-3.628 -4.895,-4.767c-1.975,-1.096 -4.032,-1.734 -6.346,-1.071c-2.016,0.577 -3.956,1.946 -4.404,4.744c-0.105,0.657 -0.755,1.283 -1.272,1.17c-0.72,-0.158 -1.417,-0.255 -2.076,-0.768c-0.729,-0.567 -1.683,-0.887 -2.583,-1.179c-1.107,-0.361 -1.119,-0.299 -1.235,0.842c-0.024,0.235 -0.148,0.458 -0.205,0.692c-0.156,0.642 -0.362,1.279 -0.436,1.931c-0.161,1.411 -0.252,2.829 -0.382,4.365c1.291,0.222 2.441,0.556 3.6,0.584c1.372,0.033 1.881,1.011 2.15,1.944c0.333,1.161 0.907,2.137 1.514,3.13c1.623,2.657 4.204,3.759 7.105,4.119c1.056,0.13 2.195,-0.29 3.277,-0.542c1.412,-0.328 2.373,-1.336 3.284,-2.379c1.442,-1.65 2.707,-3.427 3.263,-5.577c0.271,-1.049 0.276,-2.165 0.424,-3.248c0.193,-1.422 -0.25,-2.727 -0.783,-3.99z" fill="#30419a"/></g><g stroke-width="1"><path d="M258.063,204.688l0.763,2.319l0.674,2.302l5.5,12.366l-1.263,1.599l-0.937,0.976l-2.059,1.614l-3.141,1.24l-2.9,0.713l-2.737,-0.188l-3.221,-2.19l-3.942,-6.719l-2.85,-4.787l0.206,-2.421l2.444,-2.303l7.279,-3.504l4.115,-1.017h2.069" fill="#fabfbd"/><path d="M249.806,228.322c-0.459,-0.685 -0.95,-1.348 -1.484,-1.97c-0.752,-0.877 -1.15,-2.016 -1.747,-2.994c-0.809,-1.326 -1.594,-2.668 -2.454,-3.962c-0.823,-1.238 -1.68,-2.453 -2.545,-3.662c-0.713,-0.994 -1.558,-1.616 -1.275,-2.981c0.076,-0.372 0.155,-0.621 0.487,-0.703c1.007,-0.25 1.183,0.865 1.555,1.525c0.426,0.755 0.922,1.468 1.388,2.197c1.001,1.562 2.04,3.101 3.03,4.67c0.702,1.113 1.325,2.276 2.034,3.384c0.491,0.767 1.12,1.446 1.596,2.222c0.329,0.534 0.651,1.071 0.973,1.609c0.005,0.08 0.014,0.16 0.014,0.238c-0.038,0.297 -0.176,0.571 -0.49,0.793c-0.057,0.04 -0.13,0.071 -0.208,0.096c-0.297,-0.118 -0.595,-0.292 -0.874,-0.462z" fill="#30419a"/><path d="M263.452,220.505c-0.564,-1.402 -1.078,-2.809 -1.737,-4.161c-0.015,-0.05 -0.035,-0.099 -0.047,-0.15c-0.666,-2.844 -1.966,-5.441 -3.109,-8.099c-0.237,-0.554 -0.455,-1.125 -0.72,-1.665c-0.195,-0.691 -1.824,-4.583 0.153,-4.367c0.577,0.063 0.677,0.868 0.846,1.313c0.322,0.85 0.274,1.896 0.498,2.789c0.288,1.149 0.811,2.24 1.248,3.352c0.772,1.969 1.519,3.95 2.346,5.897c0.603,1.419 1.317,2.79 1.989,4.199c0.007,-0.003 0.013,-0.006 0.019,-0.008c0.026,0.062 0.059,0.124 0.108,0.182c0.329,0.397 0.552,0.85 0.746,1.32c-0.015,0.074 -0.024,0.151 -0.012,0.236c0.03,0.206 0.078,0.472 0.07,0.722c-0.44,0.298 -0.779,0.694 -1.353,0.449c-0.016,-0.009 -0.03,-0.018 -0.046,-0.027c-0.366,-0.644 -0.723,-1.293 -0.999,-1.982z" fill="#30419a"/></g><g stroke-width="1"><path d="M213.883,184.308c0.252,0.635 0.33,1.363 0.459,2.032c-0.113,0.756 -0.227,1.512 -0.34,2.269c-0.231,1.554 -1.097,2.472 -2.59,2.891l-0.781,-0.749l-1.169,-5.401v-2.784l0.585,-0.637c0.797,0.095 1.829,0.098 2.484,0.618c0.512,0.405 0.918,0.862 1.206,1.434c0.052,0.104 0.101,0.213 0.146,0.327z" fill="#fabfbd"/><path d="M209.737,190.45l-0.6,2.653l-1.8,1.151c0,0 -2.85,-0.2 -2.85,0.05c0,0.25 1.45,0.201 -0.65,3.805c-2.1,3.604 -5.304,6.101 -9.649,5.912c-4.346,-0.192 -5.801,-2.359 -8.051,-6.213c-2.25,-3.853 -1.8,-5.756 -1.8,-8.459c0,-2.704 2.1,-4.715 2.1,-4.715c0,0 3.201,-3.095 3.401,-3.194c0.199,-0.1 3,-1.152 3.25,-1.102c0.25,0.05 2.95,0 2.95,0l2.85,1.102l3.2,2.502l5.25,-1.652c2.45,-1.252 2.4,8.16 2.399,8.16z" fill="#ef453e"/><path d="M215.311,191.596c-0.257,0.191 -0.542,0.33 -0.827,0.472c-1.199,0.521 -2.41,1.026 -3.566,1.646c-1.376,0.558 -2.752,1.117 -4.125,1.682c-1.237,0.509 -1.58,1.776 -2.184,2.827c-1.002,1.743 -2.248,3.275 -3.832,4.563c-1.305,1.061 -2.728,1.755 -4.324,2.2c-2.342,0.655 -4.472,-0.08 -6.5,-1.07c-2.199,-1.072 -3.643,-2.893 -4.719,-5.109c-1.015,-2.091 -1.941,-4.17 -2.098,-6.52c-0.245,-3.675 0.974,-6.809 3.469,-9.481c1.389,-1.488 2.992,-2.672 4.954,-3.23c2.917,-0.829 5.818,-1.065 8.449,0.901c0.461,0.345 0.919,0.747 1.24,1.218c0.821,1.207 1.854,1.205 3.069,0.748c0.897,-0.338 1.834,-0.567 2.744,-0.874c1.486,-0.5 2.971,-1.003 4.448,-1.532c0.302,0.027 0.654,0.033 0.942,0.154c0.028,0.048 0.052,0.098 0.097,0.136c0.366,0.311 0.174,0.927 -0.064,1.378c-0.056,0.015 -0.112,0.037 -0.16,0.074c-0.064,0.049 -0.131,0.091 -0.198,0.133c-0.556,0.189 -1.113,0.379 -1.672,0.558c-0.567,0.18 -0.632,0.522 -0.539,1.072c0.314,1.839 0.531,3.695 0.86,5.531c0.098,0.551 0.441,1.059 0.668,1.589c0.107,0.248 0.198,0.365 0.289,0.402c0.064,0.054 0.148,0.084 0.25,0.067c0.4,-0.072 0.8,-0.268 1.169,-0.436c0.166,-0.076 0.343,-0.137 0.52,-0.202c0.128,-0.038 0.255,-0.081 0.377,-0.143c0.016,0.009 0.031,0.017 0.049,0.023c0.512,0.145 1.025,0.098 1.217,0.693c0.06,0.183 0.049,0.361 -0.003,0.53zM208.741,191.861c-0.258,-2.746 -0.584,-5.484 -0.89,-8.221c-0.352,-0.029 -0.553,-0.104 -0.712,-0.049c-1.446,0.49 -2.924,0.913 -4.311,1.537c-1.031,0.464 -1.92,0.269 -2.363,-0.74c-0.816,-1.856 -3.043,-3.307 -4.978,-3.34c-2.701,-0.045 -5.311,0.512 -7.139,2.761c-1.056,1.3 -2.18,2.644 -2.821,4.16c-0.929,2.199 -0.613,4.557 0.24,6.767c0.46,1.192 1.212,2.27 1.691,3.456c1.105,2.734 3.411,3.974 5.967,4.809c2.111,0.691 4.052,-0.245 5.739,-1.355c2.482,-1.629 4.17,-3.919 4.384,-7.021c0.055,-0.792 -0.03,-1.55 0.732,-1.698c0.728,0.296 1.29,0.739 1.795,0.68c0.737,-0.084 1.461,-0.474 2.129,-0.845c0.271,-0.15 0.564,-0.61 0.537,-0.901z" fill="#30419a"/></g></g></g></svg>